<svg xmlns="http://www.w3.org/2000/svg" xmlns:xlink="http://www.w3.org/1999/xlink" width="30" height="30" viewBox="0 0 30 30">
  <defs>
    <linearGradient id="linear-gradient" x1="0.5" x2="0.5" y2="1" gradientUnits="objectBoundingBox">
      <stop offset="0" stop-color="#ff02ac"/>
      <stop offset="1" stop-color="#ffe241"/>
    </linearGradient>
  </defs>
  <path id="Path_3" data-name="Path 3" d="M15,8A15,15,0,1,0,30,23,15,15,0,0,0,15,8Zm6.953,10.2c-.226,2.372-1.2,8.128-1.7,10.784-.21,1.124-.624,1.5-1.025,1.538-.871.08-1.533-.576-2.376-1.129-1.32-.865-2.066-1.4-3.348-2.249-1.481-.976-.521-1.512.323-2.389.221-.229,4.059-3.72,4.133-4.037a.305.305,0,0,0-.07-.265.347.347,0,0,0-.311-.03q-.2.045-6.327,4.182a2.848,2.848,0,0,1-1.627.6,10.7,10.7,0,0,1-2.332-.552c-.939-.305-1.686-.467-1.621-.985q.051-.405,1.116-.829,6.559-2.858,8.748-3.768c4.166-1.733,5.031-2.034,5.6-2.044a.988.988,0,0,1,.581.174.632.632,0,0,1,.214.406A2.647,2.647,0,0,1,21.953,18.2Z" transform="translate(0 -8)" fill="url(#linear-gradient)"/>
</svg>
